<?xml version="1.0" encoding="UTF-8"?>
<svg xmlns="http://www.w3.org/2000/svg" xmlns:xlink="http://www.w3.org/1999/xlink" width="500pt" height="500pt" viewBox="0 0 500 500" version="1.1">
<g id="surface169">
<path style=" stroke:none;fill-rule:nonzero;fill:rgb(25.098039%,60%,18.039216%);fill-opacity:1;" d="M 310 120 C 310 153.136719 283.136719 180 250 180 C 216.863281 180 190 153.136719 190 120 C 190 86.863281 216.863281 60 250 60 C 283.136719 60 310 86.863281 310 120 "/>
<path style=" stroke:none;fill-rule:nonzero;fill:rgb(57.647059%,34.901961%,68.627451%);fill-opacity:1;" d="M 50 250 C 50 222.386719 139.542969 200 250 200 C 360.457031 200 450 222.386719 450 250 C 450 277.613281 360.457031 300 250 300 C 139.542969 300 50 277.613281 50 250 "/>
<path style=" stroke:none;fill-rule:nonzero;fill:rgb(77.647059%,22.745098%,22.352941%);fill-opacity:1;" d="M 310 380 C 310 413.136719 283.136719 440 250 440 C 216.863281 440 190 413.136719 190 380 C 190 346.863281 216.863281 320 250 320 C 283.136719 320 310 346.863281 310 380 "/>
</g>
</svg>
